<?xml version="1.0" encoding="utf-8"?>
<!-- Generator: Adobe Illustrator 24.0.1, SVG Export Plug-In . SVG Version: 6.00 Build 0)  -->
<svg version="1.1" id="Layer_1" xmlns="http://www.w3.org/2000/svg" xmlns:xlink="http://www.w3.org/1999/xlink" x="0px" y="0px"
	 viewBox="0 0 512 512" style="enable-background:new 0 0 512 512;" xml:space="preserve">
<style type="text/css">
	.st0{fill:#41479B;}
	.st1{fill:#F5F5F5;}
	.st2{fill:#FF4B55;}
</style>
<g>
	<rect class="st0" width="512" height="512"/>
	<polygon class="st0" points="94.3,0 0,0 0,20 94.3,81.8 	"/>
	<polygon class="st0" points="0,68.3 0,94.3 39.7,94.3 	"/>
	<polygon class="st0" points="0,161.7 0,187.7 39.7,161.7 	"/>
	<polygon class="st0" points="256,20 256,0 161.7,0 161.7,81.8 	"/>
	<polygon class="st0" points="256,187.7 256,161.7 216.3,161.7 	"/>
	<polygon class="st0" points="161.7,174.2 161.7,256 256,256 256,236 	"/>
	<polygon class="st0" points="256,94.3 256,68.3 216.3,94.3 	"/>
	<polygon class="st0" points="0,236 0,256 94.3,256 94.3,174.2 	"/>
</g>
<g>
	<polygon class="st1" points="256,236 256,216.1 172.2,161.7 197,161.7 256,200 256,187.7 216.3,161.7 256,161.7 256,148.2 
		148.2,148.2 148.2,256 161.7,256 161.7,174.2 	"/>
	<polygon class="st1" points="0,148.2 0,161.7 39.7,161.7 0,187.7 0,206.6 69.2,161.7 93.9,161.7 0,222.7 0,236 94.3,174.2 
		94.3,256 107.8,256 107.8,148.2 	"/>
	<polygon class="st1" points="107.8,0 94.3,0 94.3,81.8 0,20 0,41.8 80.8,94.3 56.1,94.3 0,57.9 0,68.3 39.7,94.3 0,94.3 0,107.8 
		107.8,107.8 	"/>
	<polygon class="st1" points="256,107.8 256,94.3 216.3,94.3 256,68.3 256,49.2 186.4,94.3 161.7,94.3 256,33.1 256,20 161.7,81.8 
		161.7,0 148.2,0 148.2,107.8 	"/>
</g>
<g>
	<polygon class="st2" points="256,148.2 256,107.8 148.2,107.8 148.2,0 107.8,0 107.8,107.8 0,107.8 0,148.2 107.8,148.2 107.8,256 
		148.2,256 148.2,148.2 	"/>
	<polygon class="st2" points="69.2,161.7 0,206.6 0,222.7 93.9,161.7 	"/>
	<polygon class="st2" points="172.2,161.7 256,216.1 256,200 197,161.7 	"/>
	<polygon class="st2" points="80.8,94.3 0,41.8 0,57.9 56.1,94.3 	"/>
	<polygon class="st2" points="186.4,94.3 256,49.2 256,33.1 161.7,94.3 	"/>
</g>
<g>
	<path class="st1" d="M130.4,337.4l8.5,28l27.2-10.8c2.3-0.9,4.4,1.7,3,3.8l-16.6,24.1l25.4,14.5c2.2,1.2,1.4,4.5-1.1,4.7l-29.2,2
		l4.5,28.9c0.4,2.5-2.7,3.9-4.4,2.1L128,413.2l-19.8,21.5c-1.7,1.8-4.7,0.4-4.4-2.1l4.5-28.9l-29.2-2c-2.5-0.2-3.2-3.5-1.1-4.7
		l25.4-14.5l-16.6-24.1c-1.4-2.1,0.7-4.7,3-3.8l27.2,10.8l8.5-28C126.3,335.1,129.7,335.1,130.4,337.4z"/>
	<path class="st1" d="M385.4,86.9l4.1,13.7l13.3-5.3c1.1-0.5,2.2,0.8,1.5,1.8l-8.1,11.8l12.4,7.1c1.1,0.6,0.7,2.2-0.5,2.3l-14.3,1
		l2.2,14.1c0.2,1.2-1.3,1.9-2.1,1l-9.7-10.5l-9.7,10.5c-0.8,0.9-2.3,0.2-2.1-1l2.2-14.1l-14.3-1c-1.2-0.1-1.6-1.7-0.5-2.3l12.4-7.1
		l-8.1-11.8c-0.7-1,0.3-2.3,1.5-1.8l13.3,5.3l4.1-13.7C383.4,85.7,385.1,85.7,385.4,86.9z"/>
	<path class="st1" d="M293,212.2l4.1,13.7l13.3-5.3c1.1-0.5,2.2,0.8,1.5,1.8l-8.1,11.8l12.4,7.1c1.1,0.6,0.7,2.2-0.5,2.3l-14.3,1
		l2.2,14.1c0.2,1.2-1.3,1.9-2.1,1l-9.7-10.5l-9.7,10.5c-0.8,0.9-2.3,0.2-2.1-1l2.2-14.1l-14.3-1c-1.2-0.1-1.6-1.7-0.5-2.3l12.4-7.1
		l-8.1-11.8c-0.7-1,0.3-2.3,1.5-1.8l13.3,5.3l4.1-13.7C291,211.1,292.7,211.1,293,212.2z"/>
	<path class="st1" d="M472.8,146.9l4.1,13.7l13.3-5.3c1.1-0.5,2.2,0.8,1.5,1.8l-8.1,11.8L496,176c1.1,0.6,0.7,2.2-0.5,2.3l-14.3,1
		l2.2,14.1c0.2,1.2-1.3,1.9-2.1,1l-9.7-10.5l-9.7,10.5c-0.8,0.9-2.3,0.2-2.1-1l2.2-14.1l-14.3-1c-1.2-0.1-1.6-1.7-0.5-2.3l12.4-7.1
		l-8.1-11.8c-0.7-1,0.3-2.3,1.5-1.8l13.3,5.3l4.1-13.7C470.8,145.7,472.5,145.7,472.8,146.9z"/>
	<path class="st1" d="M385.4,368.1l4.1,13.7l13.3-5.3c1.1-0.5,2.2,0.8,1.5,1.8l-8.1,11.8l12.4,7.1c1.1,0.6,0.7,2.2-0.5,2.3l-14.3,1
		l2.2,14.1c0.2,1.2-1.3,1.9-2.1,1l-9.7-10.5l-9.7,10.5c-0.8,0.9-2.3,0.2-2.1-1l2.2-14.1l-14.3-1c-1.2-0.1-1.6-1.7-0.5-2.3l12.4-7.1
		l-8.1-11.8c-0.7-1,0.3-2.3,1.5-1.8l13.3,5.3l4.1-13.7C383.4,366.9,385.1,366.9,385.4,368.1z"/>
	<path class="st1" d="M417.5,247l-3.3,10l-10.5,0.1c-1.4,0-1.9,1.7-0.8,2.6l8.5,6.2l-3.2,10c-0.4,1.3,1.1,2.4,2.2,1.6l8.6-6.1
		l8.6,6.1c1.1,0.8,2.6-0.3,2.2-1.6l-3.2-10l8.5-6.2c1.1-0.8,0.5-2.5-0.8-2.6l-10.5-0.1l-3.3-10C419.7,245.7,417.9,245.7,417.5,247z"
		/>
</g>
</svg>
