<?xml version="1.0" encoding="utf-8"?>
<!-- Generator: Adobe Illustrator 25.2.1, SVG Export Plug-In . SVG Version: 6.00 Build 0)  -->
<svg version="1.1" id="Layer_1" xmlns="http://www.w3.org/2000/svg" xmlns:xlink="http://www.w3.org/1999/xlink" x="0px" y="0px"
	 viewBox="0 0 50 26" style="enable-background:new 0 0 50 26;" xml:space="preserve">
<style type="text/css">
	.st0{fill:#009EF7;}
	.st1{fill:#3F4254;}
</style>
<g>
	<g>
		<g>
			<path class="st0" d="M33.2,9.6c-0.2-0.5-0.5-1-0.8-1.4c-0.1-0.1,0-0.2,0-0.3l1.7-1.3c0.1-0.1,0.2-0.1,0.3,0
				c0.4,0.5,0.8,1.1,1.2,1.7c0.1,0.1,0,0.2-0.1,0.3l-2,1C33.4,9.7,33.3,9.7,33.2,9.6z"/>
			<path class="st0" d="M31.7,7.3C31,6.4,30.1,5.5,29,4.8c-0.1-0.1-0.1-0.2-0.1-0.3L29.9,3c0.1-0.1,0.2-0.1,0.3-0.1
				c1.3,0.7,2.4,1.7,3.4,2.8c0.1,0.1,0.1,0.2,0,0.3L32,7.3C31.9,7.4,31.8,7.4,31.7,7.3z"/>
			<path class="st0" d="M28.1,4.3c-1.1-0.6-2.3-1-3.5-1.3c-0.1,0-0.2-0.1-0.2-0.2l0.2-1.5c0-0.1,0.1-0.2,0.2-0.2
				c1.4,0.2,2.9,0.6,4.2,1.3c0.1,0.1,0.2,0.2,0.1,0.3l-0.8,1.6C28.3,4.3,28.2,4.3,28.1,4.3z"/>
			<path class="st0" d="M23.5,2.8c-1.2-0.1-2.5-0.1-3.8,0.1c-0.1,0-0.2,0-0.2-0.2l-0.3-1.2c0-0.1,0-0.2,0.2-0.3
				c1.4-0.3,2.9-0.5,4.3-0.4c0.1,0,0.2,0.1,0.2,0.2l-0.2,1.5C23.7,2.7,23.6,2.8,23.5,2.8z"/>
			<path class="st0" d="M18.7,3.2c-1.2,0.3-2.4,0.8-3.5,1.5c-0.1,0.1-0.2,0-0.3-0.1l-0.5-0.8c-0.1-0.1,0-0.2,0.1-0.3
				c1.2-0.8,2.4-1.5,3.8-1.9c0.1,0,0.2,0,0.3,0.1l0.3,1.1C18.9,3,18.8,3.1,18.7,3.2z"/>
			<path class="st0" d="M14.3,5.3c-1,0.8-1.9,1.7-2.7,2.7c-0.1,0.1-0.2,0.1-0.3,0.1l-0.5-0.4c-0.1-0.1-0.1-0.2-0.1-0.3
				c0.8-1.2,1.7-2.3,2.8-3.2c0.1-0.1,0.2-0.1,0.3,0L14.3,5C14.4,5.1,14.4,5.2,14.3,5.3z"/>
			<path class="st0" d="M10.9,9c-0.7,1.1-1.2,2.3-1.5,3.6c0,0.1-0.1,0.2-0.2,0.2l-0.3-0.1c-0.1,0-0.2-0.1-0.2-0.2
				c0.3-1.4,0.7-2.7,1.4-3.9c0.1-0.1,0.2-0.1,0.3-0.1l0.5,0.3C11,8.8,11,8.9,10.9,9z"/>
			<path class="st0" d="M9,13.5c0.1,0,0.2,0.1,0.2,0.2c-0.2,1.4-0.2,2.8,0,4.1l-0.5,0.1c-0.3-1.4-0.4-2.9-0.2-4.3
				c0-0.1,0.1-0.2,0.2-0.2L9,13.5z"/>
			<path class="st0" d="M9.3,18.6c0.3,1.4,0.8,2.8,1.6,4.1l-0.1,0.1c-0.8-1.2-1.5-2.6-1.9-4.1L9.3,18.6z"/>
			<path class="st0" d="M11.3,23.3c0.4,0.6,0.9,1.2,1.4,1.8c-0.6-0.5-1.1-1.1-1.5-1.7L11.3,23.3z"/>
		</g>
	</g>
	<polygon class="st1" points="20.5,9.4 23.7,15.9 23.1,15.7 41.6,6.5 23.5,16.5 23.2,16.7 22.9,16.3 19.4,10 	"/>
</g>
</svg>
