<?xml version="1.0" encoding="utf-8"?>
<!-- Generator: Adobe Illustrator 24.0.1, SVG Export Plug-In . SVG Version: 6.00 Build 0)  -->
<svg version="1.1" id="Layer_1" xmlns="http://www.w3.org/2000/svg" xmlns:xlink="http://www.w3.org/1999/xlink" x="0px" y="0px"
	 viewBox="0 0 269 56" style="enable-background:new 0 0 269 56;" xml:space="preserve">
<style type="text/css">
	.st0{fill:#F9F9F9;}
	.st1{fill:#009EF7;}
	.st2{fill:#FFFFFF;}
</style>
<g>
	<path class="st0" d="M79.4,18.5v3.9H73v20.1h-4.8V22.4h-6.4v-3.9H79.4z"/>
	<path class="st0" d="M83.3,20.4c-0.6-0.5-0.8-1.2-0.8-2c0-0.8,0.3-1.5,0.8-2c0.6-0.5,1.3-0.8,2.1-0.8c0.8,0,1.6,0.3,2.1,0.8
		c0.6,0.5,0.8,1.2,0.8,2c0,0.8-0.3,1.5-0.8,2c-0.6,0.5-1.3,0.8-2.1,0.8C84.5,21.2,83.8,20.9,83.3,20.4z M87.7,23.5v19.1h-4.8V23.5
		H87.7z"/>
	<path class="st0" d="M121.8,25.3c1.4,1.4,2.2,3.4,2.2,6v11.2h-4.8V32c0-1.5-0.4-2.6-1.1-3.4c-0.8-0.8-1.8-1.2-3.1-1.2
		s-2.3,0.4-3.1,1.2c-0.8,0.8-1.2,1.9-1.2,3.4v10.5h-4.8V32c0-1.5-0.4-2.6-1.1-3.4c-0.8-0.8-1.8-1.2-3.1-1.2c-1.3,0-2.4,0.4-3.1,1.2
		c-0.8,0.8-1.2,1.9-1.2,3.4v10.5h-4.8V23.5h4.8v2.3c0.6-0.8,1.4-1.4,2.4-1.9c1-0.5,2-0.7,3.2-0.7c1.5,0,2.8,0.3,4,0.9
		s2.1,1.5,2.7,2.7c0.6-1.1,1.5-2,2.7-2.6c1.2-0.7,2.5-1,3.8-1C118.5,23.2,120.4,23.9,121.8,25.3z"/>
	<path class="st0" d="M146.1,34.4h-13.9c0.1,1.4,0.6,2.5,1.4,3.2c0.8,0.8,1.9,1.2,3.1,1.2c1.8,0,3.1-0.8,3.8-2.3h5.2
		c-0.6,1.8-1.6,3.3-3.2,4.5c-1.6,1.2-3.5,1.8-5.7,1.8c-1.8,0-3.5-0.4-4.9-1.2c-1.5-0.8-2.6-2-3.4-3.5c-0.8-1.5-1.2-3.2-1.2-5.2
		c0-2,0.4-3.7,1.2-5.2c0.8-1.5,1.9-2.6,3.4-3.4c1.4-0.8,3.1-1.2,5-1.2c1.8,0,3.4,0.4,4.9,1.2c1.4,0.8,2.5,1.9,3.3,3.3
		c0.8,1.4,1.2,3.1,1.2,4.9C146.3,33.3,146.2,33.9,146.1,34.4z M141.3,31.2c0-1.2-0.5-2.2-1.3-3c-0.9-0.7-1.9-1.1-3.2-1.1
		c-1.2,0-2.2,0.4-3,1.1s-1.3,1.7-1.5,3H141.3z"/>
	<path class="st0" d="M153.3,25.8v11.7c0,1.1,0.2,1.9,0.7,2.4c0.4,0.4,1.2,0.7,2.3,0.7h2.2v2.1h-2.6c-1.7,0-3-0.4-3.8-1.2
		c-0.8-0.8-1.2-2.1-1.2-3.9V25.8h-2.6v-2h2.6V19h2.4v4.7h5.2v2H153.3z"/>
	<path class="st0" d="M167.2,24.3c1.1-0.6,2.4-1,4-1v2.5h-0.7c-1.7,0-3.1,0.5-4.2,1.4c-1.1,0.9-1.6,2.5-1.6,4.7v10.5h-2.4V23.7h2.4
		v3.3C165.3,25.9,166.2,25,167.2,24.3z"/>
	<path class="st0" d="M174.9,28c0.8-1.5,1.8-2.6,3.2-3.4c1.4-0.8,2.9-1.2,4.6-1.2c1.8,0,3.3,0.4,4.6,1.2c1.3,0.8,2.2,1.9,2.8,3.2
		v-4.1h2.4v18.8h-2.4v-4.2c-0.6,1.3-1.5,2.3-2.8,3.2c-1.3,0.8-2.8,1.3-4.6,1.3c-1.7,0-3.2-0.4-4.6-1.2c-1.4-0.8-2.4-1.9-3.2-3.4
		c-0.8-1.5-1.2-3.2-1.2-5.1C173.8,31.2,174.1,29.5,174.9,28z M189.2,29.1c-0.6-1.1-1.5-2-2.5-2.6c-1.1-0.6-2.2-0.9-3.5-0.9
		c-1.3,0-2.5,0.3-3.6,0.9c-1.1,0.6-1.9,1.5-2.5,2.6c-0.6,1.1-0.9,2.5-0.9,4c0,1.5,0.3,2.9,0.9,4c0.6,1.2,1.4,2,2.5,2.7
		s2.2,0.9,3.6,0.9c1.3,0,2.5-0.3,3.5-0.9c1.1-0.6,1.9-1.5,2.5-2.6c0.6-1.1,0.9-2.5,0.9-4S189.9,30.3,189.2,29.1z"/>
	<path class="st0" d="M198.2,28c0.8-1.5,1.9-2.6,3.2-3.4c1.4-0.8,2.9-1.2,4.7-1.2c2.3,0,4.2,0.6,5.7,1.7c1.5,1.1,2.5,2.7,2.9,4.7
		h-2.6c-0.3-1.4-1-2.4-2.1-3.2c-1.1-0.8-2.4-1.2-4-1.2c-1.3,0-2.4,0.3-3.4,0.9s-1.8,1.4-2.4,2.6c-0.6,1.1-0.9,2.5-0.9,4.2
		c0,1.7,0.3,3.1,0.9,4.2c0.6,1.1,1.4,2,2.4,2.6c1,0.6,2.1,0.9,3.4,0.9c1.6,0,2.9-0.4,4-1.2c1.1-0.8,1.8-1.8,2.1-3.2h2.6
		c-0.4,1.9-1.4,3.5-2.9,4.6c-1.5,1.2-3.4,1.8-5.7,1.8c-1.8,0-3.3-0.4-4.7-1.2c-1.4-0.8-2.5-1.9-3.2-3.4c-0.8-1.5-1.2-3.2-1.2-5.1
		S197.4,29.5,198.2,28z"/>
	<path class="st0" d="M229.3,42.5l-7.7-8.4v8.4h-2.4V17.1h2.4v15.1l7.6-8.4h3.4l-8.9,9.4l9,9.4H229.3z"/>
	<path class="st0" d="M252.6,34H237c0.1,1.4,0.4,2.6,1,3.6s1.4,1.8,2.4,2.3c1,0.5,2.1,0.8,3.3,0.8c1.6,0,2.9-0.4,3.9-1.1
		c1.1-0.8,1.8-1.8,2.1-3.1h2.5c-0.5,1.8-1.4,3.3-2.9,4.5c-1.5,1.2-3.4,1.7-5.7,1.7c-1.8,0-3.3-0.4-4.7-1.2c-1.4-0.8-2.5-1.9-3.3-3.4
		c-0.8-1.5-1.2-3.2-1.2-5.1s0.4-3.7,1.2-5.1c0.8-1.5,1.9-2.6,3.3-3.4c1.4-0.8,3-1.2,4.8-1.2c1.8,0,3.4,0.4,4.7,1.2s2.4,1.8,3.1,3.1
		c0.7,1.3,1.1,2.8,1.1,4.4C252.7,33,252.7,33.6,252.6,34z M249.4,28.5c-0.6-1-1.4-1.7-2.4-2.2c-1-0.5-2.1-0.8-3.3-0.8
		c-1.8,0-3.3,0.6-4.6,1.7c-1.3,1.1-2,2.8-2.1,4.9h13.2C250.3,30.7,250,29.5,249.4,28.5z"/>
	<path class="st0" d="M261.9,24.3c1.1-0.6,2.4-1,4-1v2.5h-0.7c-1.7,0-3.1,0.5-4.2,1.4c-1.1,0.9-1.6,2.5-1.6,4.7v10.5h-2.4V23.7h2.4
		v3.3C260,25.9,260.8,25,261.9,24.3z"/>
</g>
<path class="st1" d="M16,44.2h36.4c2.1,0,3.7-1.7,3.7-3.7V25.2c0-5.3-4.3-9.6-9.6-9.6H10.1c-2.1,0-3.7,1.7-3.7,3.7v15.2
	C6.4,39.8,10.7,44.2,16,44.2z"/>
<g>
	<path class="st2" d="M21.5,24.5c1.1,0.5,1.9,1.3,2.5,2.3c0.6,1,0.9,2.2,0.9,3.6c0,1.4-0.3,2.6-0.9,3.6c-0.6,1-1.4,1.8-2.5,2.3
		c-1.1,0.5-2.4,0.8-3.9,0.8h-4V23.7h4C19.1,23.7,20.4,23.9,21.5,24.5z M21.9,34.5c1-1,1.5-2.4,1.5-4.1c0-1.8-0.5-3.2-1.5-4.2
		c-1-1-2.4-1.5-4.3-1.5H15V36h2.7C19.5,36,21,35.5,21.9,34.5z"/>
	<path class="st2" d="M28.7,24.8v5h5.2v1.1h-5.2V36h5.7v1.1h-7.1V23.6h7.1v1.1H28.7z"/>
	<path class="st2" d="M47.9,23.7l-5.2,13.5h-1.6L36,23.7h1.5l4.5,12l4.5-12H47.9z"/>
</g>
</svg>
