<?xml version="1.0" encoding="utf-8"?>
<!-- Generator: Adobe Illustrator 25.2.1, SVG Export Plug-In . SVG Version: 6.00 Build 0)  -->
<svg version="1.1" id="Layer_1" xmlns="http://www.w3.org/2000/svg" xmlns:xlink="http://www.w3.org/1999/xlink" x="0px" y="0px"
	 viewBox="0 0 164 26" style="enable-background:new 0 0 164 26;" xml:space="preserve">
<style type="text/css">
	.st0{fill:#3F4254;}
	.st1{fill:#009EF7;}
</style>
<g>
	<g>
		<path class="st0" d="M36.2,5.9V8H32v13.5h-2.6V8h-4.2V5.9H36.2z"/>
		<path class="st0" d="M38.9,7.1c-0.3-0.3-0.5-0.7-0.5-1.2c0-0.5,0.2-0.9,0.5-1.2c0.3-0.3,0.7-0.5,1.2-0.5c0.4,0,0.8,0.2,1.1,0.5
			c0.3,0.3,0.5,0.7,0.5,1.2c0,0.5-0.2,0.9-0.5,1.2c-0.3,0.3-0.7,0.5-1.1,0.5C39.6,7.5,39.2,7.4,38.9,7.1z M41.3,9.2v12.4h-2.6V9.2
			H41.3z"/>
		<path class="st0" d="M62.3,9.6c0.8,0.4,1.4,1,1.8,1.8c0.4,0.8,0.7,1.8,0.7,2.9v7.3h-2.5v-6.9c0-1.1-0.3-2-0.8-2.6
			c-0.6-0.6-1.3-0.9-2.3-0.9c-1,0-1.7,0.3-2.3,0.9c-0.6,0.6-0.8,1.4-0.8,2.6v6.9h-2.5v-6.9c0-1.1-0.3-2-0.8-2.6
			c-0.6-0.6-1.3-0.9-2.3-0.9c-1,0-1.7,0.3-2.3,0.9c-0.6,0.6-0.8,1.4-0.8,2.6v6.9h-2.6V9.2h2.6v1.4c0.4-0.5,1-0.9,1.6-1.2
			C49.5,9.1,50.2,9,50.9,9c1,0,1.9,0.2,2.7,0.6c0.8,0.4,1.4,1,1.8,1.8c0.4-0.7,1-1.3,1.8-1.8C57.9,9.2,58.8,9,59.7,9
			C60.7,9,61.6,9.2,62.3,9.6z"/>
		<path class="st0" d="M79.3,16.3h-9.5c0.1,1,0.4,1.8,1.1,2.4c0.7,0.6,1.5,0.9,2.4,0.9c1.4,0,2.4-0.6,2.9-1.7h2.8
			c-0.4,1.1-1.1,2.1-2,2.8c-1,0.7-2.2,1.1-3.7,1.1c-1.2,0-2.2-0.3-3.2-0.8c-0.9-0.5-1.7-1.3-2.2-2.2c-0.5-1-0.8-2.1-0.8-3.4
			c0-1.3,0.3-2.4,0.8-3.4c0.5-1,1.2-1.7,2.2-2.2c0.9-0.5,2-0.8,3.2-0.8c1.2,0,2.2,0.3,3.1,0.8c0.9,0.5,1.6,1.2,2.1,2.1
			c0.5,0.9,0.8,2,0.8,3.2C79.4,15.5,79.4,15.9,79.3,16.3z M76.7,14.2c0-0.9-0.4-1.7-1-2.3c-0.7-0.6-1.5-0.9-2.5-0.9
			c-0.9,0-1.6,0.3-2.3,0.8c-0.6,0.6-1,1.3-1.1,2.3H76.7z"/>
		<path class="st0" d="M91.2,5.8v1.3h-4.4v14.4h-1.6V7.1h-4.4V5.8H91.2z"/>
		<path class="st0" d="M96.9,9.7c0.7-0.4,1.6-0.6,2.6-0.6v1.6h-0.4c-1.1,0-2.1,0.3-2.7,0.9c-0.7,0.6-1,1.6-1,3.1v6.9h-1.6V9.3h1.6
			v2.2C95.7,10.7,96.2,10.1,96.9,9.7z"/>
		<path class="st0" d="M101.9,12.1c0.5-1,1.2-1.7,2.1-2.2c0.9-0.5,1.9-0.8,3-0.8c1.2,0,2.2,0.3,3,0.8c0.8,0.5,1.5,1.2,1.8,2.1V9.3
			h1.6v12.3h-1.6v-2.7c-0.4,0.8-1,1.5-1.9,2.1c-0.8,0.5-1.9,0.8-3,0.8c-1.1,0-2.1-0.3-3-0.8c-0.9-0.5-1.6-1.3-2.1-2.2
			c-0.5-1-0.8-2.1-0.8-3.3C101.2,14.1,101.4,13,101.9,12.1z M111.3,12.8c-0.4-0.7-1-1.3-1.7-1.7c-0.7-0.4-1.5-0.6-2.3-0.6
			c-0.9,0-1.6,0.2-2.3,0.6c-0.7,0.4-1.2,1-1.6,1.7c-0.4,0.7-0.6,1.6-0.6,2.6c0,1,0.2,1.9,0.6,2.6c0.4,0.8,0.9,1.3,1.6,1.7
			c0.7,0.4,1.5,0.6,2.3,0.6c0.8,0,1.6-0.2,2.3-0.6c0.7-0.4,1.2-1,1.7-1.7c0.4-0.7,0.6-1.6,0.6-2.6S111.7,13.6,111.3,12.8z"/>
		<path class="st0" d="M117.1,12.1c0.5-1,1.2-1.7,2.1-2.2c0.9-0.5,1.9-0.8,3.1-0.8c1.5,0,2.8,0.4,3.7,1.1c1,0.7,1.6,1.8,1.9,3.1
			h-1.7c-0.2-0.9-0.7-1.6-1.4-2.1c-0.7-0.5-1.6-0.8-2.6-0.8c-0.8,0-1.6,0.2-2.2,0.6c-0.7,0.4-1.2,0.9-1.6,1.7
			c-0.4,0.7-0.6,1.7-0.6,2.7s0.2,2,0.6,2.7c0.4,0.7,0.9,1.3,1.6,1.7c0.7,0.4,1.4,0.6,2.2,0.6c1,0,1.9-0.3,2.6-0.8
			c0.7-0.5,1.2-1.2,1.4-2.1h1.7c-0.3,1.3-0.9,2.3-1.9,3c-1,0.8-2.2,1.1-3.7,1.1c-1.2,0-2.2-0.3-3.1-0.8c-0.9-0.5-1.6-1.3-2.1-2.2
			c-0.5-1-0.8-2.1-0.8-3.3C116.3,14.1,116.6,13,117.1,12.1z"/>
		<path class="st0" d="M137.5,21.6l-5.1-5.5v5.5h-1.6V4.9h1.6v9.8l4.9-5.5h2.2l-5.8,6.1l5.9,6.2H137.5z"/>
		<path class="st0" d="M152.7,16h-10.2c0,0.9,0.3,1.7,0.7,2.4c0.4,0.7,0.9,1.2,1.6,1.5c0.7,0.3,1.4,0.5,2.2,0.5c1,0,1.9-0.2,2.6-0.7
			c0.7-0.5,1.2-1.2,1.4-2h1.7c-0.3,1.2-0.9,2.2-1.9,2.9c-1,0.8-2.2,1.1-3.7,1.1c-1.2,0-2.2-0.3-3.1-0.8c-0.9-0.5-1.6-1.3-2.1-2.2
			c-0.5-1-0.8-2.1-0.8-3.3c0-1.3,0.3-2.4,0.8-3.3c0.5-1,1.2-1.7,2.1-2.2c0.9-0.5,2-0.8,3.1-0.8c1.2,0,2.2,0.3,3.1,0.8
			c0.9,0.5,1.6,1.2,2,2.1c0.5,0.9,0.7,1.8,0.7,2.9C152.7,15.3,152.7,15.7,152.7,16z M150.6,12.4c-0.4-0.6-0.9-1.1-1.6-1.5
			c-0.7-0.3-1.4-0.5-2.2-0.5c-1.2,0-2.2,0.4-3,1.1c-0.8,0.7-1.3,1.8-1.4,3.2h8.6C151.2,13.8,151,13,150.6,12.4z"/>
		<path class="st0" d="M158.8,9.7c0.7-0.4,1.6-0.6,2.6-0.6v1.6H161c-1.1,0-2.1,0.3-2.7,0.9c-0.7,0.6-1,1.6-1,3.1v6.9h-1.6V9.3h1.6
			v2.2C157.5,10.7,158.1,10.1,158.8,9.7z"/>
	</g>
	<g>
		<g>
			<path class="st1" d="M18.7,11.3c-0.2-0.3-0.3-0.6-0.5-0.9c0-0.1,0-0.1,0-0.2l1.1-0.8c0.1,0,0.1,0,0.2,0c0.3,0.4,0.5,0.7,0.7,1.1
				c0,0.1,0,0.2-0.1,0.2l-1.3,0.7C18.8,11.4,18.7,11.3,18.7,11.3z"/>
			<path class="st1" d="M17.7,9.8c-0.5-0.6-1.1-1.1-1.8-1.6c-0.1,0-0.1-0.1,0-0.2l0.6-1c0-0.1,0.1-0.1,0.2,0
				c0.8,0.5,1.6,1.1,2.2,1.8c0.1,0.1,0,0.1,0,0.2l-1,0.9C17.8,9.8,17.8,9.8,17.7,9.8z"/>
			<path class="st1" d="M15.3,7.8c-0.7-0.4-1.5-0.7-2.3-0.8C13,7,13,6.9,13,6.8l0.2-1c0-0.1,0.1-0.1,0.2-0.1
				c0.9,0.1,1.8,0.4,2.7,0.8c0.1,0,0.1,0.1,0.1,0.2l-0.5,1C15.5,7.8,15.4,7.9,15.3,7.8z"/>
			<path class="st1" d="M12.4,6.9c-0.8-0.1-1.6-0.1-2.4,0.1c-0.1,0-0.1,0-0.2-0.1L9.6,6.1c0-0.1,0-0.1,0.1-0.2
				c0.9-0.2,1.8-0.3,2.8-0.2c0.1,0,0.1,0.1,0.1,0.2l-0.1,0.9C12.5,6.8,12.5,6.9,12.4,6.9z"/>
			<path class="st1" d="M9.3,7.1C8.5,7.3,7.7,7.6,7,8.1c-0.1,0-0.1,0-0.2,0L6.5,7.5c0-0.1,0-0.1,0-0.2c0.8-0.5,1.6-1,2.5-1.2
				c0.1,0,0.2,0,0.2,0.1l0.2,0.7C9.4,7,9.3,7.1,9.3,7.1z"/>
			<path class="st1" d="M6.4,8.5C5.7,9,5.1,9.6,4.6,10.3c0,0.1-0.1,0.1-0.2,0l-0.3-0.2C4,10,4,10,4.1,9.9c0.5-0.8,1.1-1.5,1.8-2.1
				c0.1-0.1,0.2,0,0.2,0l0.3,0.4C6.5,8.4,6.5,8.5,6.4,8.5z"/>
			<path class="st1" d="M4.2,10.9c-0.4,0.7-0.8,1.5-1,2.3c0,0.1-0.1,0.1-0.2,0.1l-0.2,0c-0.1,0-0.1-0.1-0.1-0.2
				c0.2-0.9,0.5-1.7,0.9-2.5c0-0.1,0.1-0.1,0.2-0.1l0.3,0.2C4.3,10.7,4.3,10.8,4.2,10.9z"/>
			<path class="st1" d="M3,13.8c0.1,0,0.1,0.1,0.1,0.2c-0.1,0.9-0.1,1.8,0,2.7l-0.3,0.1c-0.2-0.9-0.2-1.9-0.1-2.8
				c0-0.1,0.1-0.1,0.2-0.1L3,13.8z"/>
			<path class="st1" d="M3.2,17.1c0.2,0.9,0.5,1.8,1,2.7l-0.1,0.1c-0.5-0.8-0.9-1.7-1.2-2.7L3.2,17.1z"/>
			<path class="st1" d="M4.5,20.2C4.7,20.6,5,21,5.4,21.3C5,21,4.7,20.6,4.5,20.2L4.5,20.2z"/>
		</g>
	</g>
	<polygon class="st0" points="10.4,11.2 12.5,15.4 12.1,15.3 24.1,9.3 12.4,15.8 12.2,15.9 12,15.6 9.7,11.5 	"/>
</g>
</svg>
