<?xml version="1.0" encoding="utf-8"?>
<!-- Generator: Adobe Illustrator 24.0.1, SVG Export Plug-In . SVG Version: 6.00 Build 0)  -->
<svg version="1.1" id="Layer_1" xmlns="http://www.w3.org/2000/svg" xmlns:xlink="http://www.w3.org/1999/xlink" x="0px" y="0px"
	 viewBox="0 0 269 56" style="enable-background:new 0 0 269 56;" xml:space="preserve">
<style type="text/css">
	.st0{fill:#3F4254;}
	.st1{fill:#009EF7;}
	.st2{fill:#FFFFFF;}
</style>
<g>
	<path class="st0" d="M79,17.3v3.9h-6.4v20.1h-4.8V21.2h-6.4v-3.9H79z"/>
	<path class="st0" d="M82.8,19.1c-0.6-0.5-0.8-1.2-0.8-2c0-0.8,0.3-1.5,0.8-2c0.6-0.5,1.3-0.8,2.1-0.8c0.8,0,1.6,0.3,2.1,0.8
		c0.6,0.5,0.8,1.2,0.8,2c0,0.8-0.3,1.5-0.8,2C86.5,19.7,85.8,20,85,20C84.1,20,83.4,19.7,82.8,19.1z M87.3,22.2v19.1h-4.8V22.2H87.3
		z"/>
	<path class="st0" d="M121.4,24.1c1.4,1.4,2.2,3.4,2.2,6v11.2h-4.8V30.8c0-1.5-0.4-2.6-1.1-3.4c-0.8-0.8-1.8-1.2-3.1-1.2
		s-2.3,0.4-3.1,1.2c-0.8,0.8-1.2,1.9-1.2,3.4v10.5h-4.8V30.8c0-1.5-0.4-2.6-1.1-3.4c-0.8-0.8-1.8-1.2-3.1-1.2
		c-1.3,0-2.4,0.4-3.1,1.2c-0.8,0.8-1.2,1.9-1.2,3.4v10.5h-4.8V22.2h4.8v2.3c0.6-0.8,1.4-1.4,2.4-1.9c1-0.5,2-0.7,3.2-0.7
		c1.5,0,2.8,0.3,4,0.9s2.1,1.5,2.7,2.7c0.6-1.1,1.5-2,2.7-2.6c1.2-0.7,2.5-1,3.8-1C118.1,22,120,22.7,121.4,24.1z"/>
	<path class="st0" d="M145.7,33.2h-13.9c0.1,1.4,0.6,2.5,1.4,3.2c0.8,0.8,1.9,1.2,3.1,1.2c1.8,0,3.1-0.8,3.8-2.3h5.2
		c-0.6,1.8-1.6,3.3-3.2,4.5c-1.6,1.2-3.5,1.8-5.7,1.8c-1.8,0-3.5-0.4-4.9-1.2c-1.5-0.8-2.6-2-3.4-3.5c-0.8-1.5-1.2-3.2-1.2-5.2
		c0-2,0.4-3.7,1.2-5.2c0.8-1.5,1.9-2.6,3.4-3.4c1.4-0.8,3.1-1.2,5-1.2c1.8,0,3.4,0.4,4.9,1.2c1.4,0.8,2.5,1.9,3.3,3.3
		c0.8,1.4,1.2,3.1,1.2,4.9C145.9,32,145.8,32.7,145.7,33.2z M140.9,30c0-1.2-0.5-2.2-1.3-3c-0.9-0.7-1.9-1.1-3.2-1.1
		c-1.2,0-2.2,0.4-3,1.1s-1.3,1.7-1.5,3H140.9z"/>
	<path class="st0" d="M152.9,24.5v11.7c0,1.1,0.2,1.9,0.7,2.4c0.4,0.4,1.2,0.7,2.3,0.7h2.2v2.1h-2.6c-1.7,0-3-0.4-3.8-1.2
		c-0.8-0.8-1.2-2.1-1.2-3.9V24.5h-2.6v-2h2.6v-4.7h2.4v4.7h5.2v2H152.9z"/>
	<path class="st0" d="M166.8,23.1c1.1-0.6,2.4-1,4-1v2.5h-0.7c-1.7,0-3.1,0.5-4.2,1.4c-1.1,0.9-1.6,2.5-1.6,4.7v10.5H162V22.5h2.4
		v3.3C164.9,24.7,165.7,23.8,166.8,23.1z"/>
	<path class="st0" d="M174.5,26.8c0.8-1.5,1.8-2.6,3.2-3.4c1.4-0.8,2.9-1.2,4.6-1.2c1.8,0,3.3,0.4,4.6,1.2c1.3,0.8,2.2,1.9,2.8,3.2
		v-4.1h2.4v18.8h-2.4v-4.2c-0.6,1.3-1.5,2.3-2.8,3.2c-1.3,0.8-2.8,1.3-4.6,1.3c-1.7,0-3.2-0.4-4.6-1.2c-1.4-0.8-2.4-1.9-3.2-3.4
		c-0.8-1.5-1.2-3.2-1.2-5.1C173.4,29.9,173.7,28.2,174.5,26.8z M188.8,27.9c-0.6-1.1-1.5-2-2.5-2.6c-1.1-0.6-2.2-0.9-3.5-0.9
		c-1.3,0-2.5,0.3-3.6,0.9c-1.1,0.6-1.9,1.5-2.5,2.6c-0.6,1.1-0.9,2.5-0.9,4c0,1.5,0.3,2.9,0.9,4c0.6,1.2,1.4,2,2.5,2.7
		s2.2,0.9,3.6,0.9c1.3,0,2.5-0.3,3.5-0.9c1.1-0.6,1.9-1.5,2.5-2.6c0.6-1.1,0.9-2.5,0.9-4S189.5,29.1,188.8,27.9z"/>
	<path class="st0" d="M197.8,26.8c0.8-1.5,1.9-2.6,3.2-3.4c1.4-0.8,2.9-1.2,4.7-1.2c2.3,0,4.2,0.6,5.7,1.7c1.5,1.1,2.5,2.7,2.9,4.7
		h-2.6c-0.3-1.4-1-2.4-2.1-3.2c-1.1-0.8-2.4-1.2-4-1.2c-1.3,0-2.4,0.3-3.4,0.9s-1.8,1.4-2.4,2.6c-0.6,1.1-0.9,2.5-0.9,4.2
		c0,1.7,0.3,3.1,0.9,4.2c0.6,1.1,1.4,2,2.4,2.6c1,0.6,2.1,0.9,3.4,0.9c1.6,0,2.9-0.4,4-1.2c1.1-0.8,1.8-1.8,2.1-3.2h2.6
		c-0.4,1.9-1.4,3.5-2.9,4.6c-1.5,1.2-3.4,1.8-5.7,1.8c-1.8,0-3.3-0.4-4.7-1.2c-1.4-0.8-2.5-1.9-3.2-3.4c-0.8-1.5-1.2-3.2-1.2-5.1
		S197,28.2,197.8,26.8z"/>
	<path class="st0" d="M228.9,41.3l-7.7-8.4v8.4h-2.4V15.8h2.4v15.1l7.6-8.4h3.4l-8.9,9.4l9,9.4H228.9z"/>
	<path class="st0" d="M252.2,32.8h-15.6c0.1,1.4,0.4,2.6,1,3.6s1.4,1.8,2.4,2.3c1,0.5,2.1,0.8,3.3,0.8c1.6,0,2.9-0.4,3.9-1.1
		c1.1-0.8,1.8-1.8,2.1-3.1h2.5c-0.5,1.8-1.4,3.3-2.9,4.5c-1.5,1.2-3.4,1.7-5.7,1.7c-1.8,0-3.3-0.4-4.7-1.2c-1.4-0.8-2.5-1.9-3.3-3.4
		c-0.8-1.5-1.2-3.2-1.2-5.1s0.4-3.7,1.2-5.1c0.8-1.5,1.9-2.6,3.3-3.4c1.4-0.8,3-1.2,4.8-1.2c1.8,0,3.4,0.4,4.7,1.2s2.4,1.8,3.1,3.1
		c0.7,1.3,1.1,2.8,1.1,4.4C252.3,31.8,252.3,32.4,252.2,32.8z M249,27.3c-0.6-1-1.4-1.7-2.4-2.2c-1-0.5-2.1-0.8-3.3-0.8
		c-1.8,0-3.3,0.6-4.6,1.7c-1.3,1.1-2,2.8-2.1,4.9h13.2C249.9,29.5,249.6,28.3,249,27.3z"/>
	<path class="st0" d="M261.5,23.1c1.1-0.6,2.4-1,4-1v2.5h-0.7c-1.7,0-3.1,0.5-4.2,1.4c-1.1,0.9-1.6,2.5-1.6,4.7v10.5h-2.4V22.5h2.4
		v3.3C259.6,24.7,260.4,23.8,261.5,23.1z"/>
</g>
<path class="st1" d="M15.6,42.9H52c2.1,0,3.7-1.7,3.7-3.7V24c0-5.3-4.3-9.6-9.6-9.6H9.7c-2.1,0-3.7,1.7-3.7,3.7v15.2
	C6,38.6,10.3,42.9,15.6,42.9z"/>
<g>
	<path class="st2" d="M21.1,23.2c1.1,0.5,1.9,1.3,2.5,2.3c0.6,1,0.9,2.2,0.9,3.6c0,1.4-0.3,2.6-0.9,3.6c-0.6,1-1.4,1.8-2.5,2.3
		c-1.1,0.5-2.4,0.8-3.9,0.8h-4V22.4h4C18.7,22.4,20,22.7,21.1,23.2z M21.5,33.3c1-1,1.5-2.4,1.5-4.1c0-1.8-0.5-3.2-1.5-4.2
		c-1-1-2.4-1.5-4.3-1.5h-2.7v11.3h2.7C19.1,34.8,20.5,34.3,21.5,33.3z"/>
	<path class="st2" d="M28.3,23.5v5h5.2v1.1h-5.2v5.1H34v1.1h-7.1V22.4H34v1.1H28.3z"/>
	<path class="st2" d="M47.5,22.4l-5.2,13.5h-1.6l-5.2-13.5h1.5l4.5,12l4.5-12H47.5z"/>
</g>
</svg>
