<?xml version="1.0" encoding="utf-8"?>
<!-- Generator: Adobe Illustrator 25.2.1, SVG Export Plug-In . SVG Version: 6.00 Build 0)  -->
<svg version="1.1" id="Layer_1" xmlns="http://www.w3.org/2000/svg" xmlns:xlink="http://www.w3.org/1999/xlink" x="0px" y="0px"
	 viewBox="0 0 131 26" style="enable-background:new 0 0 131 26;" xml:space="preserve">
<style type="text/css">
	.st0{fill:#CAD4FF;}
	.st1{fill:#009EF7;}
</style>
<g>
	<g>
		<path class="st0" d="M28.9,7.3V9h-3.3v10.8h-2.1V9h-3.4V7.3H28.9z"/>
		<path class="st0" d="M31.1,8.2c-0.2-0.2-0.4-0.6-0.4-0.9c0-0.4,0.1-0.7,0.4-0.9S31.7,6,32,6c0.3,0,0.7,0.1,0.9,0.4
			c0.2,0.2,0.4,0.6,0.4,0.9c0,0.4-0.1,0.7-0.4,0.9c-0.2,0.2-0.6,0.4-0.9,0.4C31.6,8.6,31.3,8.5,31.1,8.2z M33,9.9v9.9H31V9.9H33z"/>
		<path class="st0" d="M49.8,10.2c0.6,0.3,1.1,0.8,1.4,1.4c0.3,0.6,0.5,1.4,0.5,2.3v5.8h-2v-5.6c0-0.9-0.2-1.6-0.7-2.1
			c-0.4-0.5-1.1-0.7-1.8-0.7c-0.8,0-1.4,0.2-1.8,0.7c-0.4,0.5-0.7,1.1-0.7,2.1v5.5h-2v-5.5c0-0.9-0.2-1.6-0.7-2.1
			c-0.4-0.5-1.1-0.7-1.8-0.7c-0.8,0-1.4,0.2-1.8,0.7s-0.7,1.1-0.7,2.1v5.5h-2.1V9.9h2.1v1.1c0.3-0.4,0.8-0.7,1.3-1
			c0.5-0.2,1.1-0.3,1.6-0.3c0.8,0,1.5,0.2,2.1,0.5c0.6,0.3,1.1,0.8,1.4,1.4c0.3-0.6,0.8-1.1,1.4-1.4c0.6-0.3,1.3-0.5,2.1-0.5
			C48.5,9.8,49.2,9.9,49.8,10.2z"/>
		<path class="st0" d="M63.3,15.6h-7.6c0,0.8,0.3,1.4,0.9,1.9c0.5,0.5,1.1,0.7,1.9,0.7c1.1,0,1.9-0.5,2.3-1.4h2.2
			c-0.3,0.9-0.9,1.7-1.6,2.3S59.7,20,58.5,20c-1,0-1.8-0.2-2.5-0.6c-0.8-0.4-1.3-1-1.8-1.8c-0.4-0.8-0.6-1.7-0.6-2.7
			s0.2-1.9,0.6-2.7s1-1.4,1.7-1.8c0.8-0.4,1.6-0.6,2.6-0.6c0.9,0,1.8,0.2,2.5,0.6c0.7,0.4,1.3,1,1.7,1.7c0.4,0.7,0.6,1.6,0.6,2.5
			C63.4,15,63.4,15.3,63.3,15.6z M61.3,14c0-0.8-0.3-1.3-0.8-1.8c-0.5-0.4-1.2-0.7-2-0.7c-0.7,0-1.3,0.2-1.8,0.7
			c-0.5,0.4-0.8,1.1-0.9,1.8H61.3z"/>
		<path class="st0" d="M72.8,7.3v1.1h-3.5v11.5h-1.2V8.3h-3.5V7.3C64.6,7.3,72.8,7.3,72.8,7.3z"/>
		<path class="st0" d="M77.4,10.3c0.6-0.3,1.2-0.5,2.1-0.5v1.3h-0.3c-0.9,0-1.6,0.2-2.2,0.7c-0.5,0.5-0.8,1.3-0.8,2.4v5.5h-1.2V10
			h1.2v1.7C76.4,11.2,76.8,10.7,77.4,10.3z"/>
		<path class="st0" d="M81.4,12.3c0.4-0.8,1-1.3,1.7-1.8c0.7-0.4,1.5-0.6,2.4-0.6c0.9,0,1.7,0.2,2.4,0.6s1.1,1,1.5,1.6V10h1.2v9.8
			h-1.2v-2.2c-0.3,0.7-0.8,1.2-1.5,1.7c-0.7,0.4-1.5,0.7-2.4,0.7c-0.9,0-1.7-0.2-2.4-0.6c-0.7-0.4-1.2-1-1.7-1.8
			c-0.4-0.8-0.6-1.6-0.6-2.6C80.7,13.9,81,13,81.4,12.3z M88.8,12.8c-0.3-0.6-0.8-1.1-1.3-1.4c-0.6-0.3-1.1-0.5-1.8-0.5
			c-0.7,0-1.3,0.1-1.9,0.5c-0.5,0.3-1,0.8-1.3,1.3c-0.3,0.6-0.5,1.3-0.5,2.1c0,0.8,0.1,1.5,0.5,2.1c0.3,0.6,0.8,1.1,1.3,1.4
			s1.1,0.5,1.9,0.5c0.7,0,1.3-0.1,1.8-0.5c0.6-0.3,1-0.8,1.3-1.4c0.3-0.6,0.5-1.3,0.5-2.1C89.3,14.2,89.2,13.4,88.8,12.8z"/>
		<path class="st0" d="M93.5,12.3c0.4-0.8,1-1.3,1.7-1.8c0.7-0.4,1.5-0.6,2.4-0.6c1.2,0,2.2,0.3,3,0.9c0.8,0.6,1.3,1.4,1.5,2.4h-1.3
			c-0.2-0.7-0.5-1.2-1.1-1.7c-0.6-0.4-1.2-0.6-2.1-0.6c-0.7,0-1.2,0.1-1.8,0.4c-0.5,0.3-1,0.8-1.2,1.3c-0.3,0.6-0.5,1.3-0.5,2.2
			c0,0.9,0.1,1.6,0.5,2.2c0.3,0.6,0.7,1.1,1.2,1.3c0.5,0.3,1.1,0.4,1.8,0.4c0.8,0,1.5-0.2,2.1-0.6c0.6-0.4,0.9-1,1.1-1.7h1.3
			c-0.2,1-0.7,1.8-1.5,2.4c-0.8,0.6-1.8,0.9-3,0.9c-0.9,0-1.7-0.2-2.4-0.6c-0.7-0.4-1.3-1-1.7-1.8c-0.4-0.8-0.6-1.6-0.6-2.7
			C92.9,13.9,93.1,13,93.5,12.3z"/>
		<path class="st0" d="M109.8,19.8l-4-4.4v4.4h-1.2V6.5h1.2v7.9l3.9-4.4h1.8l-4.7,4.9l4.7,4.9H109.8z"/>
		<path class="st0" d="M121.9,15.4h-8.1c0,0.7,0.2,1.4,0.5,1.9s0.8,0.9,1.3,1.2c0.5,0.3,1.1,0.4,1.7,0.4c0.8,0,1.5-0.2,2.1-0.6
			s0.9-0.9,1.1-1.6h1.3c-0.2,1-0.8,1.7-1.5,2.3s-1.8,0.9-3,0.9c-0.9,0-1.7-0.2-2.5-0.6c-0.7-0.4-1.3-1-1.7-1.8
			c-0.4-0.8-0.6-1.6-0.6-2.7c0-1,0.2-1.9,0.6-2.7c0.4-0.8,1-1.3,1.7-1.8c0.7-0.4,1.6-0.6,2.5-0.6s1.8,0.2,2.4,0.6
			c0.7,0.4,1.2,1,1.6,1.6c0.4,0.7,0.6,1.4,0.6,2.3C121.9,14.8,121.9,15.2,121.9,15.4z M120.2,12.5c-0.3-0.5-0.7-0.9-1.2-1.1
			s-1.1-0.4-1.7-0.4c-0.9,0-1.7,0.3-2.4,0.9c-0.7,0.6-1,1.4-1.1,2.5h6.9C120.7,13.6,120.5,13,120.2,12.5z"/>
		<path class="st0" d="M126.8,10.3c0.6-0.3,1.2-0.5,2.1-0.5v1.3h-0.3c-0.9,0-1.6,0.2-2.2,0.7c-0.5,0.5-0.8,1.3-0.8,2.4v5.5h-1.2V10
			h1.2v1.7C125.8,11.2,126.2,10.7,126.8,10.3z"/>
	</g>
	<g>
		<g>
			<path class="st1" d="M15,11.6c-0.1-0.2-0.3-0.5-0.4-0.7c0,0,0-0.1,0-0.1l0.9-0.7c0,0,0.1,0,0.1,0c0.2,0.3,0.4,0.6,0.6,0.9
				c0,0,0,0.1,0,0.1L15,11.6C15.1,11.7,15,11.6,15,11.6z"/>
			<path class="st1" d="M14.2,10.4c-0.4-0.5-0.9-0.9-1.4-1.2c0,0,0-0.1,0-0.1l0.5-0.8c0,0,0.1,0,0.1,0C14,8.5,14.6,9,15.1,9.6
				c0,0,0,0.1,0,0.1l-0.8,0.7C14.3,10.4,14.2,10.4,14.2,10.4z"/>
			<path class="st1" d="M12.3,8.9c-0.6-0.3-1.1-0.5-1.8-0.7c0,0-0.1,0-0.1-0.1l0.1-0.8c0,0,0-0.1,0.1-0.1c0.8,0.1,1.5,0.3,2.2,0.7
				c0,0,0.1,0.1,0,0.1l-0.4,0.8C12.4,8.9,12.3,8.9,12.3,8.9z"/>
			<path class="st1" d="M9.9,8.1C9.3,8,8.6,8,8,8.1c0,0-0.1,0-0.1-0.1L7.7,7.4c0,0,0-0.1,0.1-0.1C8.5,7.1,9.3,7,10,7.1
				c0,0,0.1,0,0.1,0.1L9.9,8.1C10,8,10,8.1,9.9,8.1z"/>
			<path class="st1" d="M7.4,8.3C6.8,8.5,6.2,8.7,5.6,9.1c0,0-0.1,0-0.1,0L5.2,8.6c0,0,0-0.1,0-0.1c0.6-0.4,1.2-0.8,2-1
				c0,0,0.1,0,0.1,0.1l0.1,0.6C7.5,8.2,7.5,8.2,7.4,8.3z"/>
			<path class="st1" d="M5.2,9.4c-0.5,0.4-1,0.9-1.4,1.4c0,0-0.1,0-0.1,0l-0.3-0.2c0,0,0-0.1,0-0.1c0.4-0.6,0.9-1.1,1.4-1.6
				c0,0,0.1,0,0.1,0l0.3,0.3C5.2,9.3,5.2,9.3,5.2,9.4z"/>
			<path class="st1" d="M3.4,11.3c-0.3,0.6-0.6,1.2-0.8,1.9c0,0,0,0.1-0.1,0.1l-0.2,0c0,0-0.1,0-0.1-0.1c0.1-0.7,0.4-1.4,0.7-2
				C3,11,3,11,3.1,11l0.2,0.1C3.4,11.2,3.4,11.3,3.4,11.3z"/>
			<path class="st1" d="M2.4,13.6c0,0,0.1,0,0.1,0.1c-0.1,0.7-0.1,1.4,0,2.2l-0.2,0c-0.1-0.7-0.2-1.5-0.1-2.3
				C2.2,13.6,2.2,13.6,2.4,13.6L2.4,13.6z"/>
			<path class="st1" d="M2.6,16.2C2.7,17,3,17.7,3.4,18.3l-0.1,0c-0.4-0.6-0.8-1.3-1-2.1L2.6,16.2z"/>
			<path class="st1" d="M3.6,18.7c0.2,0.3,0.5,0.6,0.7,0.9C4.1,19.3,3.8,19,3.6,18.7L3.6,18.7z"/>
		</g>
	</g>
	<polygon class="st0" points="8.4,11.5 10,14.9 9.7,14.8 19.3,10 9.9,15.2 9.7,15.3 9.6,15.1 7.8,11.8 	"/>
</g>
</svg>
