<?xml version="1.0" encoding="utf-8"?>
<!-- Generator: Adobe Illustrator 24.0.1, SVG Export Plug-In . SVG Version: 6.00 Build 0)  -->
<svg version="1.1" id="Layer_1" xmlns="http://www.w3.org/2000/svg" xmlns:xlink="http://www.w3.org/1999/xlink" x="0px" y="0px"
	 viewBox="0 0 50 26" style="enable-background:new 0 0 50 26;" xml:space="preserve">
<style type="text/css">
	.st0{fill:#009EF7;}
	.st1{fill:#FFFFFF;}
</style>
<path class="st0" d="M11.1,25.9h33c1.9,0,3.4-1.5,3.4-3.4V8.8c0-4.8-3.9-8.7-8.7-8.7h-33c-1.9,0-3.4,1.5-3.4,3.4v13.8
	C2.4,22,6.3,25.9,11.1,25.9z"/>
<g>
	<path class="st1" d="M16.1,8.1c1,0.5,1.7,1.2,2.3,2.1s0.8,2,0.8,3.3s-0.3,2.4-0.8,3.3s-1.3,1.6-2.3,2.1s-2.2,0.7-3.5,0.7H8.9V7.3
		h3.6C13.9,7.3,15.1,7.6,16.1,8.1z M16.4,17.2c0.9-0.9,1.4-2.2,1.4-3.7c0-1.6-0.5-2.9-1.4-3.8c-0.9-0.9-2.2-1.4-3.9-1.4h-2.4v10.2
		h2.4C14.2,18.6,15.5,18.1,16.4,17.2z"/>
	<path class="st1" d="M22.6,8.3v4.5h4.7v1h-4.7v4.6h5.2v1h-6.4V7.3h6.4v1H22.6z"/>
	<path class="st1" d="M40,7.3l-4.7,12.2h-1.5L29.1,7.3h1.4l4.1,10.9l4.1-10.9C38.6,7.3,40,7.3,40,7.3z"/>
</g>
</svg>
