<?xml version="1.0" encoding="utf-8"?>
<!-- Generator: Adobe Illustrator 25.2.1, SVG Export Plug-In . SVG Version: 6.00 Build 0)  -->
<svg version="1.1" id="Layer_1" xmlns="http://www.w3.org/2000/svg" xmlns:xlink="http://www.w3.org/1999/xlink" x="0px" y="0px"
	 viewBox="0 0 269 56" style="enable-background:new 0 0 269 56;" xml:space="preserve">
<style type="text/css">
	.st0{fill:#3F4254;}
	.st1{fill:#009EF7;}
</style>
<g>
	<g>
		<path class="st0" d="M58.1,16.2v3.5h-6.9v22.6h-4.3V19.7h-7v-3.5H58.1z"/>
		<path class="st0" d="M62.7,18.1c-0.5-0.5-0.8-1.2-0.8-1.9c0-0.8,0.3-1.4,0.8-1.9c0.5-0.5,1.2-0.8,1.9-0.8c0.7,0,1.4,0.3,1.9,0.8
			c0.5,0.5,0.8,1.2,0.8,1.9c0,0.8-0.3,1.4-0.8,1.9c-0.5,0.5-1.2,0.8-1.9,0.8C63.8,18.9,63.2,18.6,62.7,18.1z M66.7,21.6v20.6h-4.3
			V21.6H66.7z"/>
		<path class="st0" d="M101.7,22.3c1.3,0.7,2.3,1.7,3,3c0.7,1.3,1.1,2.9,1.1,4.8v12.2h-4.2V30.7c0-1.8-0.5-3.3-1.4-4.3
			c-0.9-1-2.2-1.5-3.8-1.5c-1.6,0-2.9,0.5-3.8,1.5c-0.9,1-1.4,2.4-1.4,4.3v11.5H87V30.7c0-1.8-0.5-3.3-1.4-4.3
			c-0.9-1-2.2-1.5-3.8-1.5c-1.6,0-2.9,0.5-3.8,1.5c-0.9,1-1.4,2.4-1.4,4.3v11.5h-4.3V21.6h4.3V24c0.7-0.8,1.6-1.5,2.7-2
			c1.1-0.5,2.2-0.7,3.4-0.7c1.6,0,3.1,0.4,4.4,1c1.3,0.7,2.3,1.7,3,3c0.6-1.2,1.6-2.2,2.9-3c1.3-0.7,2.7-1.1,4.3-1.1
			C99,21.3,100.4,21.6,101.7,22.3z"/>
		<path class="st0" d="M130,33.5h-15.8c0.1,1.6,0.7,3,1.8,4c1.1,1,2.4,1.5,4,1.5c2.3,0,3.9-1,4.9-2.9h4.6c-0.6,1.9-1.8,3.5-3.4,4.7
			c-1.6,1.2-3.7,1.8-6.1,1.8c-2,0-3.7-0.4-5.3-1.3c-1.6-0.9-2.8-2.1-3.7-3.7c-0.9-1.6-1.3-3.5-1.3-5.6c0-2.1,0.4-4,1.3-5.6
			c0.9-1.6,2.1-2.9,3.6-3.7c1.6-0.9,3.4-1.3,5.4-1.3c1.9,0,3.7,0.4,5.2,1.3c1.5,0.8,2.7,2,3.6,3.6c0.8,1.5,1.3,3.3,1.3,5.3
			C130.2,32.2,130.1,32.9,130,33.5z M125.7,30.1c0-1.6-0.6-2.8-1.7-3.8c-1.1-0.9-2.5-1.4-4.1-1.4c-1.5,0-2.7,0.5-3.8,1.4
			c-1,0.9-1.7,2.2-1.9,3.8H125.7z"/>
		<path class="st0" d="M149.9,16.1v2.2h-7.3v24H140v-24h-7.3v-2.2H149.9z"/>
		<path class="st0" d="M159.3,22.5c1.2-0.7,2.6-1,4.4-1v2.7H163c-1.9,0-3.4,0.5-4.6,1.5c-1.1,1-1.7,2.7-1.7,5.1v11.4h-2.6V21.8h2.6
			v3.6C157.3,24.2,158.1,23.2,159.3,22.5z"/>
		<path class="st0" d="M167.7,26.5c0.8-1.6,2-2.8,3.5-3.7c1.5-0.9,3.2-1.3,5-1.3c1.9,0,3.6,0.4,5,1.3c1.4,0.9,2.4,2,3.1,3.4v-4.5
			h2.6v20.5h-2.6v-4.5c-0.6,1.4-1.7,2.6-3.1,3.5c-1.4,0.9-3.1,1.4-5,1.4c-1.8,0-3.5-0.4-5-1.3c-1.5-0.9-2.6-2.1-3.5-3.7
			c-0.8-1.6-1.3-3.4-1.3-5.5C166.4,29.9,166.9,28.1,167.7,26.5z M183.3,27.7c-0.7-1.2-1.6-2.2-2.8-2.9c-1.2-0.7-2.4-1-3.8-1
			c-1.4,0-2.7,0.3-3.9,1c-1.1,0.7-2.1,1.6-2.7,2.8c-0.7,1.2-1,2.7-1,4.4c0,1.7,0.3,3.1,1,4.4c0.7,1.3,1.6,2.2,2.7,2.9
			c1.1,0.7,2.4,1,3.9,1c1.4,0,2.7-0.3,3.8-1c1.2-0.7,2.1-1.6,2.8-2.9c0.7-1.2,1-2.7,1-4.3S184,28.9,183.3,27.7z"/>
		<path class="st0" d="M193,26.5c0.8-1.6,2-2.8,3.5-3.7c1.5-0.9,3.2-1.3,5.1-1.3c2.5,0,4.6,0.6,6.2,1.9c1.6,1.2,2.7,2.9,3.2,5.1
			h-2.8c-0.4-1.5-1.1-2.6-2.3-3.5c-1.2-0.8-2.6-1.3-4.3-1.3c-1.4,0-2.6,0.3-3.7,0.9c-1.1,0.6-2,1.6-2.6,2.8c-0.6,1.2-1,2.8-1,4.6
			s0.3,3.3,1,4.6c0.6,1.2,1.5,2.2,2.6,2.8c1.1,0.6,2.3,0.9,3.7,0.9c1.7,0,3.2-0.4,4.3-1.3c1.2-0.8,1.9-2,2.3-3.5h2.8
			c-0.5,2.1-1.5,3.8-3.2,5.1c-1.6,1.3-3.7,1.9-6.2,1.9c-1.9,0-3.6-0.4-5.1-1.3c-1.5-0.9-2.7-2.1-3.5-3.7c-0.8-1.6-1.3-3.4-1.3-5.6
			C191.7,29.9,192.2,28.1,193,26.5z"/>
		<path class="st0" d="M227,42.3l-8.4-9.2v9.2h-2.6V14.5h2.6v16.4l8.2-9.1h3.7L220.7,32l9.8,10.3H227z"/>
		<path class="st0" d="M252.3,33h-17c0.1,1.5,0.4,2.9,1.1,4c0.7,1.1,1.6,1.9,2.7,2.5c1.1,0.6,2.3,0.8,3.6,0.8c1.7,0,3.1-0.4,4.3-1.2
			c1.2-0.8,1.9-1.9,2.3-3.3h2.8c-0.5,2-1.6,3.6-3.2,4.9c-1.6,1.3-3.7,1.9-6.2,1.9c-1.9,0-3.6-0.4-5.2-1.3c-1.5-0.9-2.7-2.1-3.6-3.7
			c-0.9-1.6-1.3-3.4-1.3-5.6c0-2.1,0.4-4,1.3-5.6c0.8-1.6,2-2.8,3.6-3.7c1.5-0.8,3.3-1.3,5.2-1.3c1.9,0,3.7,0.4,5.1,1.3
			c1.5,0.8,2.6,2,3.4,3.4c0.8,1.4,1.2,3,1.2,4.8C252.4,31.9,252.4,32.6,252.3,33z M248.8,27c-0.6-1.1-1.5-1.9-2.6-2.4
			c-1.1-0.5-2.3-0.8-3.6-0.8c-1.9,0-3.6,0.6-5,1.9c-1.4,1.2-2.1,3-2.3,5.3h14.4C249.8,29.4,249.5,28.1,248.8,27z"/>
		<path class="st0" d="M262.5,22.5c1.2-0.7,2.6-1,4.4-1v2.7h-0.7c-1.9,0-3.4,0.5-4.6,1.5c-1.1,1-1.7,2.7-1.7,5.1v11.4h-2.6V21.8h2.6
			v3.6C260.4,24.2,261.3,23.2,262.5,22.5z"/>
	</g>
	<g>
		<g>
			<path class="st1" d="M29,25.1c-0.3-0.5-0.6-1-0.9-1.5c-0.1-0.1,0-0.2,0-0.3l1.8-1.4c0.1-0.1,0.2-0.1,0.3,0
				c0.5,0.6,0.9,1.2,1.2,1.9c0.1,0.1,0,0.3-0.1,0.3l-2.1,1.1C29.2,25.3,29,25.2,29,25.1z"/>
			<path class="st1" d="M27.3,22.6c-0.8-1-1.8-1.9-2.9-2.6c-0.1-0.1-0.1-0.2-0.1-0.3l1-1.7c0.1-0.1,0.2-0.1,0.3-0.1
				c1.4,0.8,2.6,1.8,3.7,3c0.1,0.1,0.1,0.2,0,0.3l-1.7,1.4C27.6,22.7,27.4,22.7,27.3,22.6z"/>
			<path class="st1" d="M23.4,19.4c-1.2-0.6-2.4-1.1-3.8-1.4c-0.1,0-0.2-0.1-0.2-0.3l0.3-1.6c0-0.1,0.1-0.2,0.3-0.2
				c1.6,0.2,3.1,0.7,4.5,1.4c0.1,0.1,0.2,0.2,0.1,0.3l-0.9,1.7C23.6,19.4,23.5,19.4,23.4,19.4z"/>
			<path class="st1" d="M18.5,17.8c-1.3-0.2-2.7-0.1-4.1,0.1c-0.1,0-0.2-0.1-0.3-0.2l-0.3-1.3c0-0.1,0-0.2,0.2-0.3
				c1.5-0.4,3.1-0.5,4.6-0.4c0.1,0,0.2,0.1,0.2,0.3l-0.2,1.6C18.7,17.7,18.6,17.8,18.5,17.8z"/>
			<path class="st1" d="M13.2,18.2c-1.3,0.4-2.6,0.9-3.8,1.6c-0.1,0.1-0.2,0-0.3-0.1l-0.6-0.8c-0.1-0.1,0-0.2,0.1-0.3
				c1.3-0.9,2.6-1.6,4.1-2.1c0.1,0,0.3,0,0.3,0.2l0.3,1.2C13.4,18,13.4,18.1,13.2,18.2z"/>
			<path class="st1" d="M8.5,20.5c-1.1,0.8-2.1,1.8-2.9,3c-0.1,0.1-0.2,0.1-0.3,0.1l-0.6-0.4c-0.1-0.1-0.1-0.2-0.1-0.3
				c0.8-1.3,1.8-2.4,3-3.4c0.1-0.1,0.3-0.1,0.3,0l0.6,0.7C8.6,20.3,8.6,20.4,8.5,20.5z"/>
			<path class="st1" d="M4.9,24.5c-0.7,1.2-1.3,2.5-1.6,3.9c0,0.1-0.1,0.2-0.3,0.2l-0.4-0.1c-0.1,0-0.2-0.1-0.2-0.3
				c0.3-1.5,0.8-2.9,1.5-4.2c0.1-0.1,0.2-0.2,0.3-0.1l0.5,0.3C4.9,24.2,4.9,24.4,4.9,24.5z"/>
			<path class="st1" d="M2.8,29.3c0.1,0,0.2,0.1,0.2,0.3c-0.2,1.5-0.2,3,0,4.5l-0.5,0.1c-0.3-1.5-0.4-3.1-0.2-4.7
				c0-0.1,0.1-0.2,0.3-0.2L2.8,29.3z"/>
			<path class="st1" d="M3.1,34.8c0.3,1.6,0.9,3.1,1.7,4.4l-0.2,0.1c-0.9-1.3-1.6-2.8-2-4.4L3.1,34.8z"/>
			<path class="st1" d="M5.3,39.9c0.5,0.7,1,1.3,1.5,1.9c-0.6-0.6-1.1-1.2-1.6-1.8L5.3,39.9z"/>
		</g>
	</g>
	<polygon class="st0" points="15.2,24.9 18.7,32 18,31.8 38,21.8 18.5,32.6 18.1,32.8 17.8,32.4 14,25.5 	"/>
</g>
</svg>
