<?xml version="1.0" encoding="utf-8"?>
<!-- Generator: Adobe Illustrator 24.0.1, SVG Export Plug-In . SVG Version: 6.00 Build 0)  -->
<svg version="1.1" id="Layer_1" xmlns="http://www.w3.org/2000/svg" xmlns:xlink="http://www.w3.org/1999/xlink" x="0px" y="0px"
	 viewBox="0 0 131 26" style="enable-background:new 0 0 131 26;" xml:space="preserve">
<style type="text/css">
	.st0{fill:#3F4254;}
	.st1{fill:#009EF7;}
	.st2{fill:#FFFFFF;}
</style>
<g>
	<path class="st0" d="M55.8,9.7v1.5h-2.5v7.9h-1.9v-7.9h-2.5V9.7C48.9,9.7,55.8,9.7,55.8,9.7z"/>
	<path class="st0" d="M57.3,10.4C57,10.2,57,9.9,57,9.6s0.1-0.6,0.3-0.8c0.2-0.2,0.5-0.3,0.8-0.3c0.3,0,0.6,0.1,0.8,0.3
		c0.2,0.2,0.3,0.5,0.3,0.8s-0.1,0.6-0.3,0.8c-0.2,0.2-0.5,0.4-0.8,0.4C57.8,10.8,57.5,10.7,57.3,10.4z M59,11.6v7.5h-1.9v-7.5H59z"
		/>
	<path class="st0" d="M72.4,12.4c0.5,0.5,0.9,1.3,0.9,2.4v4.4h-1.9V15c0-0.6-0.2-1-0.4-1.3c-0.3-0.3-0.7-0.5-1.2-0.5
		s-0.9,0.2-1.2,0.5c-0.3,0.3-0.5,0.7-0.5,1.3v4.1h-1.9V15c0-0.6-0.2-1-0.4-1.3c-0.3-0.3-0.7-0.5-1.2-0.5c-0.5,0-0.9,0.2-1.2,0.5
		C63,14,62.9,14.4,62.9,15v4.1H61v-7.5h1.9v0.9c0.2-0.3,0.5-0.5,0.9-0.7s0.8-0.3,1.3-0.3c0.6,0,1.1,0.1,1.6,0.4
		c0.5,0.2,0.8,0.6,1.1,1.1c0.2-0.4,0.6-0.8,1.1-1c0.5-0.3,1-0.4,1.5-0.4C71.1,11.6,71.9,11.8,72.4,12.4z"/>
	<path class="st0" d="M82,16h-5.5c0,0.5,0.2,1,0.5,1.3c0.3,0.3,0.7,0.5,1.2,0.5c0.7,0,1.2-0.3,1.5-0.9h2c-0.2,0.7-0.6,1.3-1.3,1.8
		c-0.6,0.5-1.4,0.7-2.2,0.7c-0.7,0-1.4-0.2-1.9-0.5c-0.6-0.3-1-0.8-1.3-1.4s-0.5-1.3-0.5-2c0-0.8,0.2-1.5,0.5-2
		c0.3-0.6,0.7-1,1.3-1.3c0.5-0.3,1.2-0.5,2-0.5c0.7,0,1.3,0.2,1.9,0.5c0.5,0.3,1,0.7,1.3,1.3s0.5,1.2,0.5,1.9
		C82.1,15.5,82,15.8,82,16z M80.1,14.7c0-0.5-0.2-0.9-0.5-1.2c-0.4-0.3-0.7-0.4-1.3-0.4c-0.5,0-0.9,0.2-1.2,0.4s-0.5,0.7-0.6,1.2
		H80.1z"/>
	<path class="st0" d="M84.8,12.5v4.6c0,0.4,0.1,0.7,0.3,0.9c0.2,0.2,0.5,0.3,0.9,0.3h0.9v0.8h-1c-0.7,0-1.2-0.2-1.5-0.5
		c-0.3-0.3-0.5-0.8-0.5-1.5v-4.6h-1v-0.8h1V9.9h0.9v1.8h2v0.8H84.8z"/>
	<path class="st0" d="M90.3,12c0.4-0.2,0.9-0.4,1.6-0.4v1h-0.3c-0.7,0-1.2,0.2-1.6,0.5s-0.6,1-0.6,1.8v4.1h-0.9v-7.3h0.9V13
		C89.5,12.6,89.8,12.3,90.3,12z"/>
	<path class="st0" d="M93.3,13.4c0.3-0.6,0.7-1,1.3-1.3c0.5-0.3,1.1-0.5,1.8-0.5c0.7,0,1.3,0.2,1.8,0.5c0.5,0.3,0.9,0.7,1.1,1.3
		v-1.6h0.9v7.4h-0.9v-1.6c-0.2,0.5-0.6,0.9-1.1,1.3c-0.5,0.3-1.1,0.5-1.8,0.5c-0.7,0-1.3-0.2-1.8-0.5c-0.5-0.3-0.9-0.7-1.3-1.3
		c-0.3-0.6-0.5-1.3-0.5-2C92.9,14.7,93,14,93.3,13.4z M98.9,13.9c-0.2-0.4-0.6-0.8-1-1c-0.4-0.2-0.9-0.4-1.4-0.4
		c-0.5,0-1,0.1-1.4,0.4c-0.4,0.2-0.7,0.6-1,1c-0.2,0.4-0.4,1-0.4,1.6c0,0.6,0.1,1.1,0.4,1.6c0.2,0.5,0.5,0.8,1,1.1
		c0.4,0.3,0.9,0.4,1.4,0.4c0.5,0,1-0.1,1.4-0.4c0.4-0.2,0.7-0.6,1-1s0.4-1,0.4-1.6C99.3,14.9,99.2,14.3,98.9,13.9z"/>
	<path class="st0" d="M102.4,13.4c0.3-0.6,0.7-1,1.3-1.3c0.5-0.3,1.1-0.5,1.8-0.5c0.9,0,1.6,0.2,2.2,0.7c0.6,0.4,1,1.1,1.1,1.8h-1
		c-0.1-0.5-0.4-0.9-0.8-1.3s-0.9-0.5-1.6-0.5c-0.5,0-0.9,0.1-1.3,0.4c-0.4,0.2-0.7,0.5-0.9,1c-0.2,0.4-0.4,1-0.4,1.6
		c0,0.7,0.1,1.2,0.4,1.6c0.2,0.4,0.5,0.8,0.9,1c0.4,0.2,0.8,0.4,1.3,0.4c0.6,0,1.1-0.2,1.6-0.5c0.4-0.3,0.7-0.7,0.8-1.3h1
		c-0.2,0.7-0.5,1.4-1.1,1.8c-0.6,0.5-1.3,0.7-2.2,0.7c-0.7,0-1.3-0.2-1.8-0.5c-0.5-0.3-1-0.7-1.3-1.3c-0.3-0.6-0.5-1.3-0.5-2
		S102.1,14,102.4,13.4z"/>
	<path class="st0" d="M114.7,19.1l-3-3.3v3.3h-0.9v-10h0.9v5.9l3-3.3h1.3l-3.5,3.7l3.5,3.7C116,19.1,114.7,19.1,114.7,19.1z"/>
	<path class="st0" d="M123.8,15.8h-6.1c0,0.5,0.2,1,0.4,1.4s0.5,0.7,0.9,0.9c0.4,0.2,0.8,0.3,1.3,0.3c0.6,0,1.1-0.2,1.5-0.4
		c0.4-0.3,0.7-0.7,0.8-1.2h1c-0.2,0.7-0.5,1.3-1.1,1.8s-1.3,0.7-2.2,0.7c-0.7,0-1.3-0.2-1.8-0.5c-0.5-0.3-1-0.7-1.3-1.3
		c-0.3-0.6-0.5-1.3-0.5-2c0-0.7,0.2-1.5,0.5-2c0.3-0.6,0.7-1,1.3-1.3c0.5-0.3,1.2-0.5,1.9-0.5s1.3,0.2,1.8,0.5s0.9,0.7,1.2,1.2
		c0.3,0.5,0.4,1.1,0.4,1.7C123.9,15.4,123.9,15.6,123.8,15.8z M122.6,13.6c-0.2-0.4-0.5-0.7-0.9-0.9c-0.4-0.2-0.8-0.3-1.3-0.3
		c-0.7,0-1.3,0.2-1.8,0.7c-0.5,0.4-0.8,1.1-0.8,1.9h5.2C122.9,14.5,122.8,14,122.6,13.6z"/>
	<path class="st0" d="M127.5,12c0.4-0.2,0.9-0.4,1.6-0.4v1h-0.3c-0.7,0-1.2,0.2-1.6,0.5s-0.6,1-0.6,1.8v4.1h-0.9v-7.3h0.9V13
		C126.7,12.6,127,12.3,127.5,12z"/>
</g>
<path class="st1" d="M8.9,26.2H42c1.9,0,3.4-1.5,3.4-3.4V9c0-4.8-3.9-8.7-8.7-8.7H3.5c-1.9,0-3.4,1.5-3.4,3.4v13.8
	C0.1,22.3,4.1,26.2,8.9,26.2z"/>
<g>
	<path class="st2" d="M13.9,8.2c1,0.5,1.7,1.2,2.3,2.1c0.5,0.9,0.8,2,0.8,3.3s-0.3,2.4-0.8,3.3c-0.5,0.9-1.3,1.6-2.3,2.1
		s-2.2,0.7-3.6,0.7H6.7V7.5h3.6C11.7,7.5,12.9,7.8,13.9,8.2z M14.3,17.4c0.9-0.9,1.4-2.2,1.4-3.7c0-1.6-0.5-2.9-1.4-3.8
		c-0.9-0.9-2.2-1.4-3.9-1.4H7.9v10.3h2.5C12.1,18.8,13.4,18.3,14.3,17.4z"/>
	<path class="st2" d="M20.5,8.5v4.6h4.7v1h-4.7v4.6h5.2v1h-6.5V7.5h6.5v1H20.5z"/>
	<path class="st2" d="M37.9,7.5l-4.7,12.3h-1.5L27,7.5h1.4l4.1,10.9l4.1-10.9C36.6,7.5,37.9,7.5,37.9,7.5z"/>
</g>
</svg>
